<?xml version="1.0" encoding="utf-8"?>
<!-- Generator: Adobe Illustrator 26.0.2, SVG Export Plug-In . SVG Version: 6.00 Build 0)  -->
<svg version="1.1" id="Layer_1" xmlns="http://www.w3.org/2000/svg" xmlns:xlink="http://www.w3.org/1999/xlink" x="0px" y="0px"
	 viewBox="0 0 1000 1000" style="enable-background:new 0 0 1000 1000;" xml:space="preserve">
<style type="text/css">
	.st0{fill:#40A3FF;}
	.st1{fill:#72277C;}
</style>
<g id="Artboard1_00000047051171793922508170000012719551192390714029_" transform="matrix(0.993636,0,0,1,-93.0801,789.067)">
	<g transform="matrix(1.88121,0,0,1.88121,347.645,-789.067)">
		<g id="connectors_00000181768319966683363380000002223692003867233982_" transform="matrix(1.0064,0,0,1,0,0)">
			<path class="st0" d="M193,150.21c-4.03,6.11-8.98,13.27-15.22,21.73c-36.3,48.79-52.56,85.74-58.93,103.69
				c4.81,1.04,9.37,3.38,12.75,7.03c9.5-21.47,32.78-68.82,62.45-92.89c8.07-6.5,15.35-11.97,21.86-16.26
				C205.23,169.33,196.91,160.75,193,150.21z M67.72,246.48c-0.78-2.47-1.43-4.94-1.95-7.42c-5.46,4.16-12.23,6.5-19.12,6.5
				c-0.78,0-1.56,0-2.21-0.13c3.9,4.81,8.2,10.41,13.14,16.65c9.63,11.97,20.3,23.03,32.13,32.91c0.91-4.81,3.25-9.11,6.64-12.62
				C84.37,272.24,71.88,259.23,67.72,246.48z"/>
		</g>
		<g id="bottom_circle_00000132770655414017126620000009253118022510493110_" transform="matrix(1.0064,0,0,1,0,0)">
			<path class="st1" d="M113.77,280.18L113.77,280.18c-10.8,0-19.38,8.72-19.38,19.38s8.72,19.38,19.38,19.38
				s19.38-8.72,19.38-19.38C133.16,288.89,124.44,280.18,113.77,280.18z M113.77,307.11c-4.16,0-7.68-3.38-7.68-7.68
				c0-4.16,3.38-7.68,7.68-7.68c4.16,0,7.68,3.38,7.68,7.68S118.07,307.11,113.77,307.11z"/>
		</g>
		<g id="right_circle_00000144310003459148346200000014773802581747907203_" transform="matrix(1.0064,0,0,1,0,0)">
			<path class="st1" d="M230.08,105.06c-17.56,0-31.74,14.05-31.74,31.61s14.05,31.74,31.61,31.74s31.74-14.18,31.74-31.74
				C261.7,119.24,247.51,105.06,230.08,105.06z M229.95,152.81c-8.85,0-16-7.16-16-16s7.16-16,16-16c8.85,0,16,7.16,16,16
				C245.95,145.52,238.8,152.68,229.95,152.81z"/>
		</g>
		<g id="left_circle_00000054250769091163185050000009803909948862943903_" transform="matrix(1.0064,0,0,1,0,0)">
			<path class="st1" d="M46.77,189.24c-13.79,0-25.11,11.06-25.11,24.98c0,13.79,11.06,25.11,24.98,25.11
				c13.79,0,25.11-11.19,25.11-24.98C71.62,200.43,60.56,189.24,46.77,189.24z M46.64,225.66c-6.24,0-11.45-5.07-11.45-11.45
				c0-6.24,5.07-11.45,11.45-11.45s11.45,5.07,11.45,11.45C58.09,220.59,53.02,225.66,46.64,225.66z"/>
		</g>
	</g>
	<g transform="matrix(0.849284,0,0,0.86577,-514.678,427.405)">
		<path class="st1" d="M970.04-612.19c0,5.72-4.42,10.28-10.02,10.28c-5.59,0-10.15-4.29-10.15-9.89s4.42-10.28,10.15-10.28
			C965.62-622.08,970.04-617.53,970.04-612.19z M968.22-516.83c0,17.3-8.2,30.83-24.85,38.51l-8.59-14.05
			c10.15-5.59,16.91-13.66,16.91-24.59v-78.06h16.52V-516.83z"/>
		<path class="st1" d="M1070.61-594.89h-14.18v10.41c-7.29-7.29-17.3-11.71-28.23-11.71c-23.55,0-42.67,19.12-42.67,42.28
			c0,23.55,19.12,42.67,42.67,42.67c11.06,0,21.08-4.55,28.36-11.71v10.41h14.05L1070.61-594.89L1070.61-594.89z M1028.32-527.89
			c-14.31,0-25.89-11.58-25.89-26.02c0-14.18,11.58-25.89,25.89-25.89c14.31,0,25.89,11.71,25.89,25.89
			C1054.21-539.47,1042.76-527.89,1028.32-527.89z"/>
		<path class="st1" d="M1154.91-512.54l-34.22-47.23l30.83-35.13h-19.64l-26.54,29.66v-62.58h-16.65v115.27h16.65v-29.79l4.55-5.46
			l25.24,35.26L1154.91-512.54L1154.91-512.54z"/>
		<path class="st0" d="M1200.7-596.32c-23.55,0-42.54,18.99-42.54,42.54c0,23.42,18.99,42.54,42.54,42.54
			c11.06,0,21.08-4.55,28.36-11.71v10.41h14.05v-115.27h-16.52v41.5C1219.83-592.42,1210.59-596.32,1200.7-596.32z M1200.96-528.02
			c-14.18,0-25.89-11.58-25.89-25.76c0-14.31,11.71-25.89,25.89-25.89s25.89,11.58,25.89,25.89
			C1226.72-539.6,1215.01-528.02,1200.96-528.02z"/>
		<path class="st0" d="M1301.27-596.32c-23.42,0-42.54,19.12-42.54,42.54c0,23.42,19.12,42.54,42.54,42.54
			c23.42,0,42.54-19.12,42.54-42.54C1343.81-577.2,1324.69-596.32,1301.27-596.32z M1301.27-579.67c14.31,0,25.89,11.58,25.89,25.89
			c0,14.31-11.58,25.89-25.89,25.89c-14.31,0-25.89-11.58-25.89-25.89C1275.38-568.09,1286.96-579.67,1301.27-579.67z"/>
		<path class="st0" d="M1382.19-612.19c0,5.72-4.42,10.28-10.02,10.28c-5.59,0-10.15-4.29-10.15-9.89s4.42-10.28,10.15-10.28
			C1377.77-622.08,1382.19-617.53,1382.19-612.19z M1380.37-516.83c0,17.3-8.2,30.83-24.85,38.51l-8.59-14.05
			c10.15-5.59,16.91-13.66,16.91-24.59v-78.06h16.52V-516.83z"/>
		<path class="st0" d="M1482.63-594.89h-14.18v10.41c-7.29-7.29-17.3-11.71-28.23-11.71c-23.55,0-42.67,19.12-42.67,42.28
			c0,23.55,19.12,42.67,42.67,42.67c11.06,0,21.08-4.55,28.36-11.71v10.41h14.05L1482.63-594.89L1482.63-594.89z M1440.48-527.89
			c-14.31,0-25.89-11.58-25.89-26.02c0-14.18,11.58-25.89,25.89-25.89c14.31,0,25.89,11.71,25.89,25.89
			C1466.37-539.47,1454.79-527.89,1440.48-527.89z"/>
		<path class="st0" d="M1540.91-596.32c-23.55,0-42.54,18.99-42.54,42.54c0,23.42,18.99,42.54,42.54,42.54
			c11.06,0,21.08-4.55,28.36-11.71v10.41h14.05v-115.27h-16.52v41.5C1560.04-592.42,1550.8-596.32,1540.91-596.32z M1541.04-528.02
			c-14.18,0-25.89-11.58-25.89-25.76c0-14.31,11.71-25.89,25.89-25.89s25.89,11.58,25.89,25.89
			C1566.93-539.6,1555.22-528.02,1541.04-528.02z"/>
		<path class="st0" d="M1682.85-548.45c0-28.88-17.95-47.75-41.89-47.75c-23.29,0-41.63,17.82-41.63,41.37
			c0,23.29,18.08,43.71,43.19,43.71c11.19,0,24.07-4.29,34.74-14.83l-9.89-12.1c-5.59,5.46-14.44,10.93-24.72,10.93
			c-11.97,0-22.9-7.94-26.15-21.34L1682.85-548.45L1682.85-548.45z M1616.63-561.72c1.95-12.36,12.49-20.3,24.2-20.3
			c12.36,0,22.25,9.11,24.2,20.3H1616.63z"/>
	</g>
</g>
</svg>
