<?xml version="1.0" encoding="utf-8"?>
<!-- Generator: Adobe Illustrator 26.5.0, SVG Export Plug-In . SVG Version: 6.00 Build 0)  -->
<svg version="1.1" id="Layer_1" xmlns="http://www.w3.org/2000/svg" xmlns:xlink="http://www.w3.org/1999/xlink" x="0px" y="0px"
	 viewBox="0 0 792.06 467.83" style="enable-background:new 0 0 792.06 467.83;" xml:space="preserve">
<style type="text/css">
	.st0{fill-rule:evenodd;clip-rule:evenodd;}
	.st1{fill-rule:evenodd;clip-rule:evenodd;fill:#FFFFFF;}
	.st2{fill:#FFFFFF;}
	.st3{fill-rule:evenodd;clip-rule:evenodd;fill:#5F249F;}
</style>
<path class="st1" d="M272.99,249.66L272.99,249.66v-85.92c0,0,0,0,25.24,0c0,0,0,0,0,117.8c0,0,0,0-20.88,0c0,0,0,0-3.18-13.04
	c-7.43,11.85-21.7,14.81-29.61,14.81c-29.84,0-53.2-20.62-53.2-53.09c0,0,0,0,0-66.48c0,0,0,0,25.24,0c0,0,0,0,0,66.48
	C216.6,259.86,253.76,271.71,272.99,249.66L272.99,249.66z M484.53,161.53c35.35,0,61.12,26.82,61.12,61.24
	c0,34.18-25.77,61.36-61.12,61.36c-35.23,0-61.48-27.18-61.48-61.36C423.05,188.35,449.3,161.53,484.53,161.53L484.53,161.53z
	 M484.53,261.34c17.85,0,35.82-12.58,35.82-38.57c0-26.11-17.97-38.22-35.82-38.22c-17.38,0-36.18,12.11-36.18,38.22
	C448.35,248.76,467.15,261.34,484.53,261.34L484.53,261.34z M654.89,244.35c0-59.26,0-59.26,0-59.26c21.96,0,21.96,0,21.96,0
	c0-21.33,0-21.33,0-21.33c-21.96,0-21.96,0-21.96,0c0-32.71,0-32.71,0-32.71c-24.32,2.73-24.32,2.73-24.32,2.73
	c0,29.99,0,29.99,0,29.99c-41.2,0-41.2,0-41.2,0c0-8.77,0-8.77,0-8.77c0-8.42,4.96-15.17,15.58-15.64c2.72-0.24,5.55,0.24,8.97,0.95
	c0-21.33,0-21.33,0-21.33c-3.9-0.71-7.67-0.95-11.1-0.95c-23.85-0.24-38.6,13.51-38.6,36.98c0,8.77,0,8.77,0,8.77
	c-16.65,0-16.65,0-16.65,0c-0.12,0-0.12,0-0.12,0c0,21.33,0,21.33,0,21.33c16.76,0,16.76,0,16.76,0c0,96.48,0,96.48,0,96.48
	c25.15,0,25.15,0,25.15,0c0-96.48,0-96.48,0-96.48c41.2,0,41.2,0,41.2,0c0,59.97,0,59.97,0,59.97c0,28.33,19.48,39.47,46.75,36.74
	c0-22.16,0-22.16,0-22.16C660.68,262.72,654.89,253.83,654.89,244.35L654.89,244.35z M339.59,163.74L339.59,163.74h-29.33
	l39.23,58.84l-39.96,59.12h26.98l39.96-59.12L339.59,163.74L339.59,163.74L339.59,163.74L339.59,163.74z M423.86,163.74h-27.37
	l-15.38,23.31l13.17,20.85L423.86,163.74L423.86,163.74L423.86,163.74z M394.21,236.94l-13.71,20.05l16.27,24.71h27.49
	L394.21,236.94L394.21,236.94L394.21,236.94L394.21,236.94z M150.96,258.46c-5.9,0-10.74-4.86-10.74-10.91
	c0-113.74,0-113.74,0-113.74c-25.49-2.73-25.49-2.73-25.49-2.73c0,119.32,0,119.32,0,119.32c0,17.32,13.92,31.31,31.15,31.31
	c37.41,0,37.41,0,37.41,0c0-23.25,0-23.25,0-23.25H150.96L150.96,258.46L150.96,258.46z"/>
<path class="st2" d="M137.12,339.85l-2.97-8.26h-11.37l-2.91,8.26h-5.13l11.13-29.87h5.29l11.13,29.87H137.12z M132.86,327.4
	l-2.79-8.1c-0.2-0.54-0.49-1.4-0.84-2.56c-0.36-1.17-0.61-2.02-0.74-2.56c-0.37,1.67-0.9,3.49-1.61,5.47l-2.69,7.75H132.86z
	 M181.22,324.69c0,4.91-1.36,8.66-4.09,11.26c-2.73,2.6-6.65,3.9-11.78,3.9h-8.32V310.1h9.2c4.73,0,8.42,1.27,11.05,3.82
	C179.91,316.48,181.22,320.07,181.22,324.69z M176.1,324.85c0-7.12-3.33-10.68-9.99-10.68h-4.21v21.59h3.46
	C172.51,335.76,176.1,332.12,176.1,324.85z M209.52,339.85h-5.59l-7.45-12.17l-7.51,12.17h-5.21l9.87-15.42l-9.24-14.32h5.41
	l6.88,11.25l6.88-11.25h5.25l-9.3,14.4L209.52,339.85z M226.19,313.85c-2.79,0-4.99,0.99-6.59,2.97c-1.6,1.98-2.4,4.71-2.4,8.2
	c0,3.65,0.77,6.41,2.31,8.28c1.54,1.87,3.77,2.81,6.68,2.81c1.26,0,2.48-0.13,3.66-0.38c1.18-0.25,2.41-0.57,3.68-0.97v4.17
	c-2.33,0.88-4.98,1.32-7.93,1.32c-4.35,0-7.7-1.32-10.03-3.96c-2.33-2.64-3.5-6.41-3.5-11.32c0-3.09,0.57-5.8,1.7-8.12
	c1.13-2.32,2.77-4.1,4.91-5.33c2.14-1.23,4.66-1.85,7.55-1.85c3.04,0,5.85,0.64,8.42,1.91l-1.75,4.05c-1-0.48-2.06-0.89-3.18-1.25
	C228.6,314.03,227.42,313.85,226.19,313.85z M261.04,339.85h-4.86v-25.57h-8.75v-4.17h22.36v4.17h-8.75V339.85z M283.66,340.26
	c-3.5,0-6.24-1.02-8.21-3.06c-1.97-2.04-2.96-4.85-2.96-8.43c0-3.68,0.92-6.57,2.75-8.67c1.83-2.1,4.35-3.15,7.55-3.15
	c2.97,0,5.32,0.9,7.04,2.71c1.72,1.8,2.58,4.29,2.58,7.45v2.58h-14.99c0.07,2.18,0.66,3.86,1.77,5.04c1.11,1.17,2.68,1.76,4.7,1.76
	c1.33,0,2.57-0.13,3.71-0.38c1.15-0.25,2.38-0.67,3.69-1.25v3.88c-1.17,0.56-2.35,0.95-3.54,1.18
	C286.56,340.14,285.19,340.26,283.66,340.26z M282.79,320.56c-1.52,0-2.74,0.48-3.65,1.44c-0.92,0.96-1.46,2.37-1.64,4.21h10.21
	c-0.03-1.86-0.48-3.27-1.34-4.22C285.5,321.04,284.3,320.56,282.79,320.56z M306.91,340.26c-3.4,0-5.99-0.99-7.76-2.98
	c-1.77-1.99-2.66-4.84-2.66-8.55c0-3.78,0.93-6.69,2.78-8.73c1.85-2.03,4.53-3.05,8.03-3.05c2.37,0,4.51,0.44,6.41,1.32l-1.44,3.85
	c-2.02-0.79-3.69-1.18-5.01-1.18c-3.89,0-5.84,2.58-5.84,7.75c0,2.52,0.48,4.42,1.45,5.69c0.97,1.27,2.39,1.9,4.26,1.9
	c2.13,0,4.14-0.53,6.04-1.59v4.17c-0.86,0.5-1.77,0.86-2.74,1.08C309.47,340.15,308.3,340.26,306.91,340.26z M338.27,339.85h-4.8
	v-13.83c0-1.74-0.35-3.03-1.05-3.88c-0.7-0.86-1.81-1.28-3.33-1.28c-2.01,0-3.48,0.6-4.42,1.8c-0.94,1.2-1.41,3.21-1.41,6.03v11.17
	h-4.78v-31.66h4.78v8.04c0,1.29-0.08,2.66-0.24,4.13h0.3c0.65-1.09,1.56-1.93,2.72-2.52c1.16-0.6,2.51-0.9,4.06-0.9
	c5.45,0,8.18,2.75,8.18,8.24V339.85z M364.71,339.85h-4.8v-13.83c0-1.74-0.35-3.03-1.05-3.88c-0.7-0.86-1.81-1.28-3.33-1.28
	c-2.02,0-3.5,0.6-4.43,1.79c-0.94,1.19-1.4,3.19-1.4,6v11.21h-4.78v-22.5h3.74l0.67,2.95h0.24c0.68-1.07,1.64-1.9,2.89-2.48
	c1.25-0.58,2.63-0.87,4.15-0.87c5.4,0,8.1,2.75,8.1,8.24V339.85z M391.33,328.56c0,3.68-0.94,6.55-2.83,8.61
	c-1.89,2.06-4.51,3.09-7.87,3.09c-2.1,0-3.96-0.48-5.57-1.42c-1.61-0.95-2.86-2.31-3.72-4.09c-0.87-1.78-1.3-3.84-1.3-6.19
	c0-3.65,0.94-6.5,2.81-8.54c1.87-2.05,4.51-3.07,7.91-3.07c3.26,0,5.83,1.05,7.73,3.14C390.38,322.18,391.33,325,391.33,328.56z
	 M374.95,328.56c0,5.2,1.92,7.79,5.76,7.79c3.8,0,5.7-2.6,5.7-7.79c0-5.14-1.91-7.71-5.74-7.71c-2.01,0-3.46,0.66-4.36,1.99
	C375.4,324.17,374.95,326.07,374.95,328.56z M401.6,339.85h-4.78v-31.66h4.78V339.85z M428.39,328.56c0,3.68-0.94,6.55-2.83,8.61
	c-1.89,2.06-4.51,3.09-7.87,3.09c-2.1,0-3.96-0.48-5.57-1.42c-1.61-0.95-2.86-2.31-3.72-4.09c-0.87-1.78-1.3-3.84-1.3-6.19
	c0-3.65,0.94-6.5,2.81-8.54c1.87-2.05,4.51-3.07,7.91-3.07c3.26,0,5.83,1.05,7.73,3.14C427.44,322.18,428.39,325,428.39,328.56z
	 M412.02,328.56c0,5.2,1.92,7.79,5.76,7.79c3.8,0,5.7-2.6,5.7-7.79c0-5.14-1.91-7.71-5.74-7.71c-2.01,0-3.46,0.66-4.36,1.99
	C412.47,324.17,412.02,326.07,412.02,328.56z M452.89,317.35v2.63l-3.85,0.71c0.35,0.48,0.64,1.06,0.87,1.75
	c0.23,0.69,0.35,1.42,0.35,2.2c0,2.32-0.8,4.14-2.4,5.47c-1.6,1.33-3.81,1.99-6.61,1.99c-0.72,0-1.37-0.05-1.95-0.16
	c-1.03,0.64-1.55,1.38-1.55,2.24c0,0.52,0.24,0.9,0.72,1.16c0.48,0.26,1.37,0.39,2.66,0.39h3.93c2.48,0,4.37,0.53,5.66,1.59
	c1.29,1.06,1.93,2.58,1.93,4.58c0,2.55-1.05,4.52-3.15,5.9c-2.1,1.38-5.14,2.08-9.11,2.08c-3.07,0-5.41-0.54-7.02-1.63
	c-1.61-1.09-2.42-2.63-2.42-4.64c0-1.38,0.44-2.55,1.31-3.49c0.87-0.94,2.1-1.6,3.67-1.96c-0.64-0.27-1.16-0.71-1.58-1.31
	c-0.41-0.6-0.62-1.24-0.62-1.9c0-0.84,0.24-1.55,0.71-2.14c0.47-0.58,1.18-1.16,2.12-1.73c-1.17-0.5-2.11-1.32-2.84-2.45
	c-0.73-1.13-1.09-2.46-1.09-3.98c0-2.44,0.77-4.33,2.31-5.68c1.54-1.34,3.73-2.02,6.58-2.02c0.64,0,1.31,0.04,2,0.13
	c0.7,0.09,1.22,0.18,1.58,0.27H452.89z M435.21,343.35c0,1.03,0.46,1.82,1.39,2.38c0.93,0.56,2.23,0.83,3.92,0.83
	c2.6,0,4.54-0.37,5.82-1.12c1.27-0.75,1.91-1.74,1.91-2.97c0-0.98-0.35-1.67-1.05-2.08c-0.7-0.41-2-0.62-3.9-0.62h-3.62
	c-1.37,0-2.46,0.32-3.27,0.97C435.61,341.38,435.21,342.25,435.21,343.35z M437.27,324.63c0,1.41,0.36,2.5,1.09,3.26
	c0.73,0.76,1.77,1.14,3.12,1.14c2.77,0,4.15-1.48,4.15-4.43c0-1.47-0.34-2.59-1.03-3.39c-0.68-0.79-1.73-1.19-3.12-1.19
	c-1.38,0-2.43,0.39-3.14,1.18C437.62,321.98,437.27,323.12,437.27,324.63z M453.64,317.35h5.21l4.58,12.76
	c0.69,1.82,1.15,3.53,1.38,5.13h0.16c0.12-0.75,0.35-1.65,0.67-2.72c0.33-1.06,2.05-6.12,5.17-15.17h5.17l-9.62,25.49
	c-1.75,4.68-4.67,7.02-8.75,7.02c-1.06,0-2.09-0.12-3.09-0.35v-3.78c0.72,0.16,1.54,0.24,2.46,0.24c2.31,0,3.93-1.34,4.86-4.01
	l0.83-2.12L453.64,317.35z M503.38,313.85c-2.79,0-4.99,0.99-6.59,2.97c-1.6,1.98-2.4,4.71-2.4,8.2c0,3.65,0.77,6.41,2.31,8.28
	c1.54,1.87,3.77,2.81,6.68,2.81c1.26,0,2.48-0.13,3.66-0.38c1.18-0.25,2.41-0.57,3.68-0.97v4.17c-2.33,0.88-4.98,1.32-7.93,1.32
	c-4.35,0-7.7-1.32-10.03-3.96c-2.33-2.64-3.5-6.41-3.5-11.32c0-3.09,0.57-5.8,1.7-8.12c1.13-2.32,2.77-4.1,4.91-5.33
	c2.14-1.23,4.66-1.85,7.55-1.85c3.04,0,5.85,0.64,8.42,1.91l-1.75,4.05c-1-0.48-2.06-0.89-3.18-1.25
	C505.8,314.03,504.62,313.85,503.38,313.85z M536.59,328.56c0,3.68-0.94,6.55-2.83,8.61c-1.89,2.06-4.51,3.09-7.87,3.09
	c-2.1,0-3.96-0.48-5.57-1.42c-1.61-0.95-2.86-2.31-3.72-4.09c-0.87-1.78-1.3-3.84-1.3-6.19c0-3.65,0.94-6.5,2.81-8.54
	c1.87-2.05,4.51-3.07,7.91-3.07c3.26,0,5.83,1.05,7.73,3.14C535.64,322.18,536.59,325,536.59,328.56z M520.21,328.56
	c0,5.2,1.92,7.79,5.76,7.79c3.8,0,5.7-2.6,5.7-7.79c0-5.14-1.91-7.71-5.74-7.71c-2.01,0-3.46,0.66-4.36,1.99
	C520.66,324.17,520.21,326.07,520.21,328.56z M561.04,339.85h-4.8v-13.88c0-1.72-0.33-3.01-0.98-3.85
	c-0.65-0.85-1.67-1.27-3.05-1.27c-1.84,0-3.2,0.6-4.06,1.8c-0.86,1.2-1.29,3.2-1.29,5.99v11.21h-4.78v-22.5h3.74l0.67,2.95h0.24
	c0.62-1.07,1.53-1.9,2.72-2.48c1.19-0.58,2.49-0.87,3.92-0.87c3.46,0,5.75,1.18,6.88,3.54h0.32c0.67-1.11,1.6-1.98,2.81-2.6
	c1.21-0.62,2.59-0.94,4.15-0.94c2.69,0,4.64,0.68,5.87,2.03c1.23,1.36,1.84,3.43,1.84,6.21v14.67h-4.78v-13.88
	c0-1.72-0.33-3.01-0.99-3.85c-0.66-0.85-1.68-1.27-3.06-1.27c-1.86,0-3.22,0.58-4.08,1.74c-0.86,1.16-1.29,2.94-1.29,5.34V339.85z
	 M593.33,340.26c-2.85,0-5.06-1.02-6.63-3.07h-0.29c0.19,1.9,0.29,3.05,0.29,3.46v9.22h-4.78v-32.51h3.87
	c0.11,0.42,0.33,1.42,0.67,3.01h0.24c1.49-2.28,3.73-3.42,6.71-3.42c2.81,0,5,1.02,6.56,3.05c1.57,2.03,2.35,4.89,2.35,8.56
	c0,3.68-0.8,6.55-2.39,8.61C598.34,339.22,596.14,340.26,593.33,340.26z M592.17,320.85c-1.9,0-3.29,0.56-4.16,1.67
	c-0.87,1.11-1.31,2.89-1.31,5.33v0.71c0,2.74,0.43,4.72,1.3,5.95c0.87,1.23,2.29,1.84,4.25,1.84c1.65,0,2.93-0.68,3.82-2.03
	c0.89-1.36,1.34-3.29,1.34-5.8c0-2.52-0.44-4.43-1.33-5.73C595.2,321.49,593.89,320.85,592.17,320.85z M621.96,339.85l-0.96-3.13
	h-0.16c-1.09,1.37-2.18,2.3-3.28,2.8c-1.1,0.49-2.51,0.74-4.23,0.74c-2.21,0-3.94-0.6-5.18-1.79c-1.24-1.19-1.86-2.88-1.86-5.07
	c0-2.32,0.86-4.07,2.58-5.25c1.72-1.18,4.35-1.82,7.87-1.93l3.89-0.12v-1.2c0-1.44-0.34-2.51-1.01-3.23
	c-0.67-0.71-1.71-1.07-3.12-1.07c-1.15,0-2.26,0.17-3.32,0.51c-1.06,0.34-2.08,0.74-3.05,1.2l-1.55-3.42
	c1.22-0.64,2.56-1.12,4.01-1.45c1.45-0.33,2.82-0.5,4.11-0.5c2.86,0,5.02,0.62,6.48,1.87c1.46,1.25,2.19,3.21,2.19,5.88v15.16
	H621.96z M614.84,336.59c1.74,0,3.13-0.48,4.18-1.45c1.05-0.97,1.58-2.33,1.58-4.08v-1.95l-2.89,0.12
	c-2.25,0.08-3.89,0.46-4.91,1.13c-1.02,0.67-1.54,1.7-1.54,3.08c0,1,0.3,1.78,0.89,2.33C612.75,336.32,613.64,336.59,614.84,336.59z
	 M651.84,339.85h-4.8v-13.83c0-1.74-0.35-3.03-1.05-3.88c-0.7-0.86-1.81-1.28-3.33-1.28c-2.02,0-3.5,0.6-4.43,1.79
	c-0.94,1.19-1.4,3.19-1.4,6v11.21h-4.78v-22.5h3.74l0.67,2.95h0.24c0.68-1.07,1.64-1.9,2.89-2.48c1.25-0.58,2.63-0.87,4.15-0.87
	c5.4,0,8.1,2.75,8.1,8.24V339.85z M655.08,317.35h5.21l4.58,12.76c0.69,1.82,1.15,3.53,1.38,5.13h0.16
	c0.12-0.75,0.35-1.65,0.67-2.72c0.33-1.06,2.05-6.12,5.17-15.17h5.17l-9.62,25.49c-1.75,4.68-4.67,7.02-8.75,7.02
	c-1.06,0-2.09-0.12-3.09-0.35v-3.78c0.72,0.16,1.54,0.24,2.46,0.24c2.31,0,3.93-1.34,4.86-4.01l0.83-2.12L655.08,317.35z"/>
</svg>
