<svg width="48" height="48" viewBox="0 0 48 48" fill="none" xmlns="http://www.w3.org/2000/svg">
<g clip-path="url(#clip0_102_718)">
<path d="M24.0002 48C24.0002 48 7.2002 26.088 7.2002 16.8C7.2002 14.5938 7.63474 12.4092 8.47902 10.3709C9.3233 8.33265 10.5608 6.48063 12.1208 4.92061C13.6808 3.36058 15.5328 2.1231 17.5711 1.27882C19.6094 0.434545 21.794 0 24.0002 0C26.2064 0 28.391 0.434545 30.4293 1.27882C32.4675 2.1231 34.3196 3.36058 35.8796 4.92061C37.4396 6.48063 38.6771 8.33265 39.5214 10.3709C40.3657 12.4092 40.8002 14.5938 40.8002 16.8C40.8002 26.088 24.0002 48 24.0002 48ZM24.0002 21.6C25.2732 21.6 26.4941 21.0943 27.3943 20.1941C28.2945 19.2939 28.8002 18.073 28.8002 16.8C28.8002 15.527 28.2945 14.3061 27.3943 13.4059C26.4941 12.5057 25.2732 12 24.0002 12C22.7272 12 21.5063 12.5057 20.6061 13.4059C19.7059 14.3061 19.2002 15.527 19.2002 16.8C19.2002 18.073 19.7059 19.2939 20.6061 20.1941C21.5063 21.0943 22.7272 21.6 24.0002 21.6Z" fill="#1872E7"/>
</g>
<defs>
<clipPath id="clip0_102_718">
<rect width="48" height="48" fill="white"/>
</clipPath>
</defs>
</svg>
