<svg width="160" height="80" viewBox="0 0 160 80" fill="none" xmlns="http://www.w3.org/2000/svg">
<path fill-rule="evenodd" clip-rule="evenodd" d="M50.9532 9.604C50.3531 9.85889 49.693 10 49.0001 10C46.5353 10 44.4869 8.21631 44.0753 5.86914C40.3898 7.22412 35.6798 11.2266 30.7794 17.0679C38.0948 17.6274 44.4532 21.6099 48.2555 27.416C50.8053 19.8862 51.7965 13.5317 50.9532 9.604ZM44.5011 2.81641C45.3116 1.14941 47.0221 0 49.0001 0C51.7613 0 54.0001 2.23877 54.0001 5C54.0001 6.01367 53.6984 6.95654 53.1803 7.74414C53.901 12.6353 52.4801 20.2529 49.2408 29.0679C51.0006 32.3193 52.0001 36.043 52.0001 40C52.0001 52.2188 42.4728 62.2114 30.4415 62.9556C21.5123 74.4692 12.6725 80.896 8.04162 78.311C3.46545 75.7563 4.22228 65.0854 9.17541 51.6685C7.15783 48.2476 6.00012 44.2593 6.00012 40C6.00012 27.416 16.1061 17.1929 28.6451 17.0029C34.3776 9.78271 40.027 4.70703 44.5011 2.81641ZM10.2882 53.377C6.40978 64.6025 5.9342 73.3115 9.75842 75.4468C13.6403 77.6138 20.9635 72.4551 28.607 62.9966C21.0553 62.8701 14.3898 59.104 10.2882 53.377ZM36.7145 54.0205C41.6539 51.2969 45.0001 46.0391 45.0001 40C45.0001 39.7104 44.9923 39.4224 44.9772 39.1367C43.7462 41.7173 42.3898 44.3447 40.9137 46.9888C39.5494 49.4326 38.1437 51.7822 36.7145 54.0205ZM44.631 36.5684C43.1813 39.792 41.5104 43.1216 39.6339 46.4829C37.943 49.5117 36.1866 52.3853 34.4044 55.0645C32.7164 55.6699 30.8966 56 29.0001 56C20.1637 56 13.0001 48.8364 13.0001 40C13.0001 31.1636 20.1637 24 29.0001 24C36.6583 24 43.0602 29.3809 44.631 36.5684Z" fill="url(#paint0_linear_78_754)"/>
<path d="M70.1193 39H68.5341C68.4403 38.544 68.2763 38.1435 68.0419 37.7983C67.8118 37.4531 67.5305 37.1634 67.1982 36.929C66.87 36.6903 66.5057 36.5114 66.1051 36.392C65.7045 36.2727 65.2869 36.2131 64.8523 36.2131C64.0597 36.2131 63.3416 36.4134 62.6982 36.8139C62.0589 37.2145 61.5497 37.8047 61.1705 38.5845C60.7955 39.3643 60.608 40.321 60.608 41.4545C60.608 42.5881 60.7955 43.5447 61.1705 44.3246C61.5497 45.1044 62.0589 45.6946 62.6982 46.0952C63.3416 46.4957 64.0597 46.696 64.8523 46.696C65.2869 46.696 65.7045 46.6364 66.1051 46.517C66.5057 46.3977 66.87 46.2209 67.1982 45.9865C67.5305 45.7479 67.8118 45.456 68.0419 45.1108C68.2763 44.7614 68.4403 44.3608 68.5341 43.9091H70.1193C70 44.5781 69.7827 45.1768 69.4673 45.7053C69.152 46.2337 68.7599 46.6832 68.2912 47.054C67.8224 47.4205 67.2962 47.6996 66.7124 47.8913C66.1328 48.0831 65.5128 48.179 64.8523 48.179C63.7358 48.179 62.7429 47.9062 61.8736 47.3608C61.0043 46.8153 60.3203 46.0398 59.8217 45.0341C59.3232 44.0284 59.0739 42.8352 59.0739 41.4545C59.0739 40.0739 59.3232 38.8807 59.8217 37.875C60.3203 36.8693 61.0043 36.0938 61.8736 35.5483C62.7429 35.0028 63.7358 34.7301 64.8523 34.7301C65.5128 34.7301 66.1328 34.826 66.7124 35.0178C67.2962 35.2095 67.8224 35.4908 68.2912 35.8615C68.7599 36.228 69.152 36.6754 69.4673 37.2038C69.7827 37.728 70 38.3267 70.1193 39ZM83.7264 41.4545C83.7264 42.8352 83.4771 44.0284 82.9785 45.0341C82.4799 46.0398 81.796 46.8153 80.9267 47.3608C80.0574 47.9062 79.0645 48.179 77.948 48.179C76.8315 48.179 75.8386 47.9062 74.9693 47.3608C74.1 46.8153 73.416 46.0398 72.9174 45.0341C72.4189 44.0284 72.1696 42.8352 72.1696 41.4545C72.1696 40.0739 72.4189 38.8807 72.9174 37.875C73.416 36.8693 74.1 36.0938 74.9693 35.5483C75.8386 35.0028 76.8315 34.7301 77.948 34.7301C79.0645 34.7301 80.0574 35.0028 80.9267 35.5483C81.796 36.0938 82.4799 36.8693 82.9785 37.875C83.4771 38.8807 83.7264 40.0739 83.7264 41.4545ZM82.1923 41.4545C82.1923 40.321 82.0027 39.3643 81.6234 38.5845C81.2484 37.8047 80.7392 37.2145 80.0957 36.8139C79.4565 36.4134 78.7406 36.2131 77.948 36.2131C77.1554 36.2131 76.4373 36.4134 75.7939 36.8139C75.1547 37.2145 74.6454 37.8047 74.2662 38.5845C73.8912 39.3643 73.7037 40.321 73.7037 41.4545C73.7037 42.5881 73.8912 43.5447 74.2662 44.3246C74.6454 45.1044 75.1547 45.6946 75.7939 46.0952C76.4373 46.4957 77.1554 46.696 77.948 46.696C78.7406 46.696 79.4565 46.4957 80.0957 46.0952C80.7392 45.6946 81.2484 45.1044 81.6234 44.3246C82.0027 43.5447 82.1923 42.5881 82.1923 41.4545ZM93.551 38.1818C93.4743 37.5341 93.1632 37.0312 92.6177 36.6733C92.0723 36.3153 91.4032 36.1364 90.6106 36.1364C90.0311 36.1364 89.524 36.2301 89.0893 36.4176C88.6589 36.6051 88.3223 36.8629 88.0794 37.1911C87.8407 37.5192 87.7214 37.892 87.7214 38.3097C87.7214 38.6591 87.8045 38.9595 87.9707 39.2109C88.1412 39.4581 88.3585 39.6648 88.6227 39.831C88.8869 39.9929 89.1639 40.1271 89.4537 40.2337C89.7434 40.3359 90.0098 40.419 90.2527 40.483L91.5822 40.8409C91.9231 40.9304 92.3024 41.054 92.72 41.2116C93.1419 41.3693 93.5446 41.5845 93.9281 41.8572C94.3159 42.1257 94.6355 42.4709 94.8869 42.8928C95.1383 43.3146 95.264 43.8324 95.264 44.446C95.264 45.1534 95.0787 45.7926 94.7079 46.3636C94.3414 46.9347 93.8045 47.3885 93.0971 47.7251C92.394 48.0618 91.5396 48.2301 90.5339 48.2301C89.5964 48.2301 88.7846 48.0788 88.0985 47.7763C87.4167 47.4737 86.8798 47.0518 86.4877 46.5107C86.1 45.9695 85.8805 45.3409 85.8294 44.625H87.4657C87.5083 45.1193 87.6745 45.5284 87.9643 45.8523C88.2583 46.1719 88.6291 46.4105 89.0765 46.5682C89.5282 46.7216 90.014 46.7983 90.5339 46.7983C91.139 46.7983 91.6824 46.7003 92.1639 46.5043C92.6454 46.304 93.0268 46.027 93.3081 45.6733C93.5893 45.3153 93.7299 44.8977 93.7299 44.4205C93.7299 43.9858 93.6085 43.6321 93.3656 43.3594C93.1227 43.0866 92.8031 42.8651 92.4068 42.6946C92.0105 42.5241 91.5822 42.375 91.122 42.2472L89.5112 41.7869C88.4885 41.4929 87.6788 41.0732 87.0822 40.5277C86.4856 39.9822 86.1873 39.2685 86.1873 38.3864C86.1873 37.6534 86.3855 37.0142 86.7818 36.4688C87.1824 35.919 87.7193 35.4929 88.3926 35.1903C89.0701 34.8835 89.8265 34.7301 90.6618 34.7301C91.5055 34.7301 92.2555 34.8814 92.9118 35.1839C93.568 35.4822 94.0879 35.8913 94.4714 36.4112C94.8592 36.9311 95.0637 37.5213 95.0851 38.1818H93.551ZM97.8704 34.9091H99.7624L104.211 45.7756H104.365L108.814 34.9091H110.706V48H109.223V38.054H109.095L105.004 48H103.572L99.4812 38.054H99.3533V48H97.8704V34.9091ZM124.93 41.4545C124.93 42.8352 124.68 44.0284 124.182 45.0341C123.683 46.0398 122.999 46.8153 122.13 47.3608C121.26 47.9062 120.268 48.179 119.151 48.179C118.035 48.179 117.042 47.9062 116.172 47.3608C115.303 46.8153 114.619 46.0398 114.121 45.0341C113.622 44.0284 113.373 42.8352 113.373 41.4545C113.373 40.0739 113.622 38.8807 114.121 37.875C114.619 36.8693 115.303 36.0938 116.172 35.5483C117.042 35.0028 118.035 34.7301 119.151 34.7301C120.268 34.7301 121.26 35.0028 122.13 35.5483C122.999 36.0938 123.683 36.8693 124.182 37.875C124.68 38.8807 124.93 40.0739 124.93 41.4545ZM123.395 41.4545C123.395 40.321 123.206 39.3643 122.827 38.5845C122.452 37.8047 121.942 37.2145 121.299 36.8139C120.66 36.4134 119.944 36.2131 119.151 36.2131C118.358 36.2131 117.64 36.4134 116.997 36.8139C116.358 37.2145 115.849 37.8047 115.469 38.5845C115.094 39.3643 114.907 40.321 114.907 41.4545C114.907 42.5881 115.094 43.5447 115.469 44.3246C115.849 45.1044 116.358 45.6946 116.997 46.0952C117.64 46.4957 118.358 46.696 119.151 46.696C119.944 46.696 120.66 46.4957 121.299 46.0952C121.942 45.6946 122.452 45.1044 122.827 44.3246C123.206 43.5447 123.395 42.5881 123.395 41.4545ZM132.657 48V34.9091H137.081C138.108 34.9091 138.947 35.0945 139.599 35.4652C140.256 35.8317 140.741 36.3281 141.057 36.9545C141.372 37.581 141.53 38.2798 141.53 39.0511C141.53 39.8224 141.372 40.5234 141.057 41.1541C140.746 41.7848 140.264 42.2876 139.612 42.6626C138.96 43.0334 138.125 43.2188 137.106 43.2188H133.936V41.8125H137.055C137.758 41.8125 138.323 41.6911 138.749 41.4482C139.175 41.2053 139.484 40.8771 139.676 40.4638C139.872 40.0462 139.97 39.5753 139.97 39.0511C139.97 38.527 139.872 38.0582 139.676 37.6449C139.484 37.2315 139.173 36.9077 138.743 36.6733C138.312 36.4347 137.741 36.3153 137.03 36.3153H134.243V48H132.657ZM144.083 48V34.9091H145.669V41.4034H145.822L151.703 34.9091H153.774L148.276 40.8153L153.774 48H151.856L147.305 41.9148L145.669 43.7557V48H144.083Z" fill="#841688"/>
<defs>
<linearGradient id="paint0_linear_78_754" x1="47" y1="39" x2="5" y2="39" gradientUnits="userSpaceOnUse">
<stop stop-color="#841688"/>
<stop offset="1" stop-color="#0C92BF"/>
</linearGradient>
</defs>
</svg>
